<svg width="48" height="48" viewBox="0 0 48 48" fill="none" xmlns="http://www.w3.org/2000/svg">
<path d="M38.1217 20.25H24.8973V16.7908C26.0644 17.1012 27.2655 17.259 28.4717 17.2602C29.8505 17.301 31.2233 17.059 32.5088 16.5488C33.7944 16.0385 34.9667 15.2703 35.9564 14.2895C40.5203 9.63131 38.3758 2.84689 38.2818 2.56054C38.2461 2.45001 38.1854 2.34957 38.1048 2.26727C38.0242 2.18497 37.9258 2.1231 37.8175 2.08661C37.5362 1.99069 30.8911 -0.198485 26.3279 4.46044C25.3785 5.42953 24.6405 6.59265 24.1626 7.87346C23.6846 6.59265 22.9467 5.42953 21.9972 4.46044C17.4347 -0.199235 10.7889 1.99069 10.5076 2.08661C10.3994 2.1231 10.3009 2.18497 10.2203 2.26727C10.1397 2.34957 10.0791 2.45001 10.0434 2.56054C9.94937 2.84689 7.80491 9.63131 12.3688 14.2895C13.3583 15.2705 14.5306 16.0389 15.8162 16.5491C17.1019 17.0594 18.4747 17.3012 19.8534 17.2602C21.0596 17.259 22.2607 17.1012 23.4279 16.7908V20.25H10.2034C9.81389 20.2505 9.44041 20.4087 9.16496 20.6899C8.88951 20.9711 8.73453 21.3523 8.73401 21.75V24.75C8.73453 25.1476 8.88951 25.5288 9.16496 25.81C9.44041 26.0912 9.81389 26.2494 10.2034 26.25H10.2559L11.5236 43.7219C11.5812 44.476 11.9146 45.1804 12.4576 45.6951C13.0006 46.2098 13.7135 46.4971 14.4544 46.5H33.8707C34.6118 46.4971 35.3245 46.2098 35.8675 45.6951C36.4105 45.1804 36.7439 44.476 36.8015 43.7219L38.0692 26.25H38.1217C38.5113 26.2494 38.8848 26.0912 39.1602 25.81C39.4357 25.5288 39.5906 25.1476 39.5911 24.75V21.75C39.5906 21.3523 39.4357 20.9711 39.1602 20.6899C38.8848 20.4087 38.5113 20.2505 38.1217 20.25ZM27.3668 5.52094C30.7244 2.09344 35.6278 3.05126 36.9913 3.40594C37.3414 4.79681 38.2878 9.78971 34.9178 13.2292C32.0711 16.1358 28.1219 15.888 26.1522 15.53L31.6616 9.90521C31.7954 9.76376 31.8695 9.57431 31.8678 9.37766C31.8662 9.18102 31.7889 8.99291 31.6526 8.85385C31.5165 8.71479 31.3322 8.63592 31.1395 8.63421C30.9469 8.6325 30.7613 8.7081 30.6228 8.84471L25.1103 14.4719C24.972 13.6856 24.903 12.8882 24.9041 12.0893C24.9041 12.0191 24.9041 11.9499 24.903 11.8785C24.8754 9.51145 25.7604 7.22813 27.3668 5.52094ZM23.2123 14.4693L17.7024 8.84434C17.5638 8.70772 17.3783 8.63213 17.1856 8.63383C16.993 8.63554 16.8088 8.71442 16.6725 8.85348C16.5362 8.99253 16.4591 9.18064 16.4574 9.37729C16.4557 9.57394 16.5297 9.76339 16.6636 9.90484L22.1756 15.5325C20.2095 15.894 16.2656 16.1468 13.4076 13.2293C10.0501 9.80179 10.9883 4.79689 11.3358 3.40429C12.699 3.04759 17.5886 2.08076 20.9586 5.52094C23.8051 8.42711 23.5632 12.4587 23.2123 14.4693ZM35.3366 43.6106C35.3078 43.9878 35.141 44.3401 34.8694 44.5975C34.5979 44.8549 34.2414 44.9986 33.8707 45H14.4544C14.0838 44.9986 13.7273 44.8549 13.4557 44.5975C13.1841 44.3401 13.0174 43.9878 12.9887 43.6106L11.7294 26.25H36.5957L35.3366 43.6106ZM37.3871 24.75H10.2034V21.75H38.1217L38.1232 24.75H37.3871Z" fill="#3B5941"/>
</svg>
