<svg width="22" height="20" viewBox="0 0 22 20" fill="none" xmlns="http://www.w3.org/2000/svg">
<path fill-rule="evenodd" clip-rule="evenodd" d="M18.5677 19.4401H2.9166C1.1067 19.4401 0 18.1771 0 16.5235C0 16.0416 0.130201 15.5469 0.403601 15.0781L8.2421 1.4714C8.789 0.507799 9.7526 0 10.7421 0C11.7317 0 12.6823 0.507799 13.2421 1.4714L21.0806 15.0781C21.3412 15.5339 21.4844 16.0416 21.4844 16.5235C21.4844 18.1771 20.3776 19.4401 18.5677 19.4401ZM7.75 12.6822C7.75 14.414 8.9479 15.586 10.7447 15.586C12.5286 15.586 13.7395 14.414 13.7395 12.6822C13.7395 11.8167 13.3787 11.0756 13.1436 10.5927C13.1382 10.5816 13.1328 10.5707 13.1276 10.5598C12.6718 9.5312 11.8515 8.2291 11.1875 7.2005C11.0703 6.9921 10.927 6.901 10.7447 6.901C10.5625 6.901 10.4192 6.9921 10.289 7.2005C9.625 8.2291 8.8177 9.5312 8.3489 10.5598C8.1145 11.0416 7.75 11.7968 7.75 12.6822Z" fill="white"/>
</svg>
