<svg width="48" height="48" viewBox="0 0 48 48" fill="none" xmlns="http://www.w3.org/2000/svg">
<path d="M42.0844 3.85977C42.3125 3.69884 42.5833 3.64149 42.7719 3.77383V3.77481L42.7836 3.78067C42.9319 3.85916 43.0376 3.95496 43.1068 4.06485C43.1758 4.17436 43.2123 4.30389 43.2123 4.45743V4.4584C43.2924 10.3111 42.4103 15.9941 40.5668 21.5072C38.9596 26.0995 37.2805 31.3421 32.4857 35.5707C30.8847 36.9261 27.5265 39.4632 22.8119 40.4779C21.9262 40.6484 20.3306 40.9857 18.5765 40.9857C16.7456 40.9857 14.6799 40.5645 12.8539 39.39C12.839 39.3761 12.8194 39.3595 12.7982 39.3422C12.7686 39.318 12.7305 39.2867 12.6849 39.2504C12.5935 39.1775 12.4711 39.0797 12.3265 38.9584C12.0375 38.7158 11.6592 38.3787 11.2611 37.9574L11.181 37.8734L11.1097 37.9643C9.50538 40.0016 7.82086 42.0392 6.05603 44.0766C5.9815 44.1554 5.9109 44.2099 5.83533 44.2455C5.76031 44.2808 5.67462 44.3002 5.56677 44.3002C5.43564 44.3002 5.21792 44.227 4.98865 44.0668C4.7123 43.7655 4.7145 43.3221 4.99646 43.0238L4.99841 43.0229C6.84738 40.9811 8.61591 38.854 10.224 36.727L10.2748 36.6596L10.2172 36.5981C10.1891 36.5683 10.1738 36.5391 10.1537 36.4965C10.1353 36.4576 10.1109 36.4086 10.0668 36.3578H10.0677C8.43619 33.789 7.89572 30.5614 8.1156 27.3568C8.33546 24.1526 9.31457 20.9797 10.7123 18.5287C11.3527 17.4276 13.7506 13.6257 18.0599 11.4301H18.0609C20.9331 9.91044 24.046 9.4866 29.1908 8.80606H29.1927C29.7516 8.72158 30.1908 8.67866 30.5511 8.64688C30.9038 8.61579 31.1874 8.5932 31.431 8.55118C31.9189 8.55061 32.2567 8.46438 32.8851 8.38126L32.8929 8.3793C36.1198 7.69627 39.2639 6.16076 42.0844 3.85977ZM41.6478 6.07559C39.1731 7.82143 36.4877 9.04637 33.8558 9.7504L33.3304 9.88419C32.6127 10.0529 32.3054 10.0506 31.7328 10.1371L31.7299 10.1381C31.4944 10.1796 31.2189 10.2007 30.8549 10.2328C30.6738 10.2488 30.4723 10.2671 30.2455 10.2924L29.4857 10.392C24.5111 11.0712 21.521 11.4981 18.7728 12.8666L18.7719 12.8676C14.8128 14.9195 12.6322 18.3366 12.0648 19.3656C10.8129 21.5877 9.90461 24.4273 9.66248 27.2885C9.42039 30.149 9.84325 33.0405 11.2631 35.3588L11.3412 35.4857L11.4291 35.3656C11.9911 34.601 12.5548 33.834 13.1185 32.9818C13.683 32.1285 14.162 31.3691 14.5638 30.7738L14.5804 30.7484V21.4545C14.5804 21.2206 14.6546 21.0338 14.7748 20.9066C14.8944 20.7803 15.0675 20.7046 15.2836 20.7045C15.4999 20.7045 15.6737 20.7801 15.7933 20.9066C15.9135 21.0338 15.9867 21.2206 15.9867 21.4545V28.5141L16.1713 28.2211C16.9706 26.9523 17.6062 26.1123 18.8793 25.102L18.8812 25.101C19.5968 24.5121 20.3131 24.0907 20.9525 23.7523L21.0052 23.724V18.0551C21.0052 17.8212 21.0794 17.6344 21.1996 17.5072C21.3192 17.3809 21.4923 17.3052 21.7084 17.3051C21.9247 17.3051 22.0985 17.3807 22.2181 17.5072C22.3383 17.6344 22.4115 17.8212 22.4115 18.0551V23.1313L22.5482 23.0766C23.1864 22.8234 23.7457 22.6548 24.308 22.4848L24.307 22.4838C25.2754 22.2274 26.2449 21.8869 27.2943 21.3744L27.3656 21.3393L27.347 21.2611L25.8217 14.8871H25.8226L25.8177 14.8754L25.7972 14.807C25.7596 14.6464 25.7947 14.4725 25.8812 14.3227C25.9806 14.1509 26.1397 14.0241 26.307 13.9887L26.3168 13.9867L26.3256 13.9828C26.4886 13.9139 26.6743 13.9457 26.8344 14.0492C26.9948 14.153 27.1172 14.3219 27.1517 14.5043L27.1527 14.5082L28.5179 20.3725L28.5599 20.5531L28.6879 20.4184C28.7581 20.344 28.8482 20.2861 28.9506 20.2211C29.0452 20.161 29.1513 20.0934 29.2396 20.0033C31.0993 18.5487 32.6326 16.5828 33.8422 14.2797C34.061 13.8939 34.4824 13.7573 34.8256 13.975C35.1871 14.2046 35.3255 14.6581 35.1136 15.0316L35.1117 15.0356C33.9935 17.2329 32.5557 19.0083 30.8773 20.5307L30.6849 20.7045H36.0844C36.3007 20.7045 36.4745 20.78 36.5941 20.9066C36.7142 21.0338 36.7875 21.2207 36.7875 21.4545C36.7874 21.688 36.714 21.8743 36.5941 22.0014C36.4745 22.128 36.3007 22.2045 36.0844 22.2045H28.6664L28.641 22.2201C27.2143 23.1427 25.9485 23.4794 24.6635 23.9037H24.6L24.5687 24.099L29.7865 25.7973V25.7982C30.2188 25.9507 30.4256 26.4018 30.2894 26.769C30.1389 27.0844 29.8487 27.3029 29.5795 27.3031H29.3549L21.9808 24.8441L21.9437 24.8315L21.9066 24.8481C21.2712 25.1469 20.5704 25.5133 19.8607 26.0609L19.556 26.307C18.1772 27.4232 17.7655 28.2038 16.5638 30.0688C16.5203 30.1187 16.4786 30.1843 16.4437 30.2397C16.4018 30.3061 16.3672 30.3601 16.3353 30.394L16.2367 30.4984L16.3695 30.5551L23.4369 33.5297L23.4418 33.5316C23.8608 33.6794 24.0083 34.1235 23.8636 34.5063L23.9574 34.5414L23.8627 34.5063L23.8597 34.519C23.7934 34.7993 23.5261 34.9515 23.2347 34.9516C23.1736 34.9516 23.1271 34.9363 23.0824 34.9174C23.0627 34.909 23.0337 34.895 23.0101 34.8861C22.9907 34.8789 22.9669 34.8728 22.9408 34.8695L15.5638 31.7299L15.4877 31.6977L15.4418 31.766C15.2422 32.0617 15.0232 32.3572 14.7914 32.6772C14.5609 32.9954 14.3194 33.3364 14.0775 33.7201C13.4348 34.6551 12.7934 35.5877 12.0726 36.5199L12.0258 36.5815L12.0726 36.643C12.4393 37.1172 12.8067 37.4619 13.0824 37.6889C13.2203 37.8024 13.3352 37.8869 13.4164 37.9428C13.4568 37.9706 13.489 37.9912 13.5111 38.0053C13.5222 38.0123 13.5315 38.0182 13.5375 38.0219C13.5402 38.0235 13.5428 38.0249 13.5443 38.0258L13.5463 38.0268L13.8422 38.2172C15.3581 39.1379 17.0618 39.4 18.597 39.39C20.2346 39.3794 21.6901 39.0587 22.5316 38.8891H22.5326C26.9722 37.9495 30.1191 35.5585 31.5717 34.2777C36.0919 30.3486 37.7056 25.479 39.2308 20.892C40.8407 16.2071 41.6452 11.268 41.806 6.16055L41.8119 5.95938L41.6478 6.07559Z" fill="#3B5941" stroke="white" stroke-width="0.2"/>
</svg>
