<svg width="23" height="23" viewBox="0 0 23 23" fill="none" xmlns="http://www.w3.org/2000/svg">
<path fill-rule="evenodd" clip-rule="evenodd" d="M12.0964 3.112C12.0964 3.6589 11.6406 4.1276 11.0937 4.1276C10.5339 4.1276 10.0781 3.6589 10.0781 3.112V1.0026C10.0781 0.4557 10.5339 0 11.0937 0C11.6406 0 12.0964 0.4557 12.0964 1.0026V3.112ZM17.4609 6.1849C17.0573 6.5885 16.4063 6.5755 16.0156 6.1849C15.638 5.7943 15.638 5.1563 16.0156 4.7656L17.526 3.2552C17.9167 2.8646 18.5677 2.8646 18.9584 3.2552C19.336 3.6458 19.336 4.3099 18.9584 4.7005L17.4609 6.1849ZM19.0755 12.1354C18.5287 12.1354 18.0599 11.6667 18.0599 11.1198C18.0599 10.5729 18.5287 10.1042 19.0755 10.1042H21.1588C21.7188 10.1042 22.1745 10.5729 22.1745 11.1198C22.1745 11.6667 21.7188 12.1354 21.1588 12.1354H19.0755ZM16.0156 17.4869C15.638 17.0964 15.638 16.4584 16.0156 16.0677C16.4063 15.6771 17.0573 15.6771 17.4479 16.0677L18.9584 17.5521C19.336 17.9427 19.336 18.5937 18.9584 18.9844C18.5677 19.3749 17.9167 19.388 17.526 18.9973L16.0156 17.4869ZM10.0781 19.1276C10.0781 18.5807 10.5339 18.112 11.0937 18.112C11.6406 18.112 12.0964 18.5807 12.0964 19.1276V21.2369C12.0964 21.7839 11.6406 22.2396 11.0937 22.2396C10.5339 22.2396 10.0781 21.7839 10.0781 21.2369V19.1276ZM4.7135 16.0677C5.1042 15.6771 5.7682 15.6771 6.1589 16.0677C6.5365 16.4584 6.5365 17.0964 6.1458 17.4869L4.6484 18.9844C4.2578 19.3749 3.6068 19.362 3.2161 18.9713C2.8385 18.5807 2.8385 17.9297 3.2292 17.5391L4.7135 16.0677ZM3.099 10.1042C3.6589 10.1042 4.1146 10.5729 4.1146 11.1198C4.1146 11.6667 3.6589 12.1354 3.099 12.1354H1.0156C0.4557 12.1354 0 11.6667 0 11.1198C0 10.5729 0.4557 10.1042 1.0156 10.1042H3.099ZM6.1589 4.7656C6.5365 5.1432 6.5365 5.8073 6.1458 6.1849C5.7552 6.5755 5.1042 6.5755 4.7135 6.1849L3.2292 4.6875C2.8516 4.3099 2.8516 3.6458 3.2422 3.2552C3.6198 2.8646 4.2839 2.8776 4.6615 3.2552L6.1589 4.7656ZM16.3932 11.1197C16.3932 14.0364 13.9844 16.4322 11.0937 16.4322C8.1901 16.4322 5.7812 14.0364 5.7812 11.1197C5.7812 8.2031 8.1901 5.8073 11.0937 5.8073C13.9844 5.8073 16.3932 8.2031 16.3932 11.1197Z" fill="white"/>
</svg>
