<svg width="23" height="18" viewBox="0 0 23 18" fill="none" xmlns="http://www.w3.org/2000/svg">
<path fill-rule="evenodd" clip-rule="evenodd" d="M10.1097 3.7471C8.36302 4.7286 6.58252 5.7292 4.22732 5.7292C2.92532 5.7292 1.70132 5.4036 0.555519 4.7396C-0.0825815 4.375 -0.108582 3.737 0.164818 3.3203C0.399218 2.9557 0.881018 2.7604 1.36282 3.0469C2.40442 3.6458 3.27682 3.8542 4.22732 3.8542C6.31752 3.8542 7.95862 2.931 9.63452 1.9883C11.3828 1.0048 13.169 0 15.5424 0C16.8445 0 18.0555 0.3255 19.2013 0.9896C19.8653 1.3802 19.8915 2.0182 19.6049 2.4219C19.3576 2.7734 18.8888 2.9687 18.4071 2.6823C17.3653 2.0833 16.4929 1.875 15.5424 1.875C13.4412 1.875 11.7911 2.8022 10.1097 3.7471ZM14.0018 7.5158L15.0852 5.4822C12.9434 5.6043 11.2801 6.5399 9.64972 7.4571C7.97392 8.3998 6.33282 9.3229 4.24262 9.3229C3.29212 9.3229 2.41972 9.1146 1.37802 8.5157C0.883219 8.2292 0.414519 8.4245 0.180119 8.7891C-0.093281 9.2058 -0.0802818 9.8438 0.570718 10.2084C1.71662 10.8724 2.94052 11.1979 4.24262 11.1979C6.59772 11.1979 8.37832 10.1974 10.1249 9.2159C11.3692 8.5167 12.5963 7.8271 14.0018 7.5158ZM11.9968 11.7087C11.8119 12.3113 11.6875 12.9559 11.6875 13.6199C11.6875 13.6909 11.6888 13.7616 11.6913 13.832C11.1573 14.096 10.635 14.3895 10.1097 14.6847C8.36302 15.6662 6.58252 16.6667 4.22732 16.6667C2.92532 16.6667 1.70132 16.3413 0.555519 15.6771C-0.0825815 15.3126 -0.108582 14.6746 0.164818 14.2579C0.399218 13.8933 0.881018 13.6979 1.36282 13.9845C2.40442 14.5834 3.27682 14.7918 4.22732 14.7918C6.31752 14.7918 7.95862 13.8686 9.63452 12.9259C10.3993 12.4956 11.1714 12.0612 11.9968 11.7087ZM22.0872 13.6199C22.0872 16.0156 20.1081 17.9557 17.6341 17.9557C15.1863 17.9557 13.207 16.0156 13.207 13.6199C13.207 12.2917 13.8711 10.9896 14.418 9.9479L16.6445 5.7943C16.9049 5.2995 17.1393 5.0781 17.6341 5.0781C18.1289 5.0781 18.3633 5.2995 18.6237 5.7943L20.8633 9.9479C21.4232 10.9896 22.0872 12.2917 22.0872 13.6199Z" fill="white"/>
</svg>
