<svg width="48" height="48" viewBox="0 0 48 48" fill="none" xmlns="http://www.w3.org/2000/svg">
<path d="M23.9922 1.80023C24.2383 1.80023 24.479 1.87591 24.6807 2.01703C27.3329 3.97047 29.773 6.19563 31.9629 8.65472L32.3984 9.14984C37.5212 15.0329 40.2002 21.2064 40.2002 27.0004C40.2001 31.2968 38.4931 35.4175 35.4551 38.4555C32.417 41.4935 28.2964 43.1996 24 43.1996C19.7036 43.1996 15.583 41.4935 12.5449 38.4555C9.50693 35.4175 7.79992 31.2968 7.7998 27.0004C7.7998 21.2064 10.4788 15.0329 15.6016 9.14984V9.14886C17.8966 6.49379 20.4793 4.1014 23.3027 2.01703L23.3037 2.01801C23.5054 1.87672 23.7459 1.8003 23.9922 1.80023ZM23.8145 4.6391C22.2548 5.86567 18.8584 8.73217 15.8496 12.645C12.844 16.5538 10.2002 21.5402 10.2002 27.0004C10.2043 30.6589 11.6592 34.1663 14.2461 36.7534C16.7523 39.2596 20.1227 40.7039 23.6572 40.7953L24 40.8002C27.6587 40.7962 31.1668 39.3404 33.7539 36.7534C36.3408 34.1663 37.7957 30.6589 37.7998 27.0004C37.7998 21.5382 35.1562 16.5514 32.1504 12.643C29.1416 8.73069 25.7451 5.86564 24.1855 4.6391L24 4.49359L23.8145 4.6391ZM32.3066 27.5209C32.5663 27.3367 32.8892 27.2635 33.2031 27.3168C33.5168 27.3702 33.7963 27.5457 33.9805 27.8051C34.1569 28.0537 34.2311 28.3595 34.1904 28.6606L34.1836 28.6987C33.8054 30.8108 32.7899 32.7568 31.2725 34.2739C29.7557 35.7903 27.8104 36.805 25.6992 37.183C25.633 37.1935 25.5661 37.1982 25.499 37.1987C25.1984 37.1983 24.9087 37.0868 24.6875 36.8832C24.466 36.6794 24.3296 36.399 24.3047 36.0991C24.2798 35.7992 24.368 35.5007 24.5527 35.2631C24.7374 35.0256 25.005 34.8666 25.3018 34.8168H25.3027C28.5355 34.2723 31.2701 31.5371 31.8184 28.2993C31.8717 27.9855 32.0471 27.7052 32.3066 27.5209Z" fill="#3B5941" stroke="white" stroke-width="0.6"/>
</svg>
