<svg width="21" height="27" viewBox="0 0 21 27" fill="none" xmlns="http://www.w3.org/2000/svg">
<path fill-rule="evenodd" clip-rule="evenodd" d="M15.4218 10.6641C15.4218 13.5027 13.1431 15.7943 10.3047 15.7943C10.2182 15.7943 10.1324 15.7921 10.0471 15.7879L10.0599 7.1094C10.0599 6.5628 9.9895 6.0453 9.8568 5.566C10.0043 5.5533 10.1537 5.5469 10.3047 5.5469C13.1431 5.5469 15.4218 7.8255 15.4218 10.6641ZM11.2812 3.0078C11.2812 3.5417 10.8515 3.9844 10.3047 3.9844C9.7708 3.9844 9.3281 3.5417 9.3281 3.0078V0.9766C9.3281 0.4427 9.7708 0 10.3047 0C10.8515 0 11.2812 0.4427 11.2812 0.9766V3.0078ZM16.4114 5.9505C16.0209 6.3411 15.3827 6.3281 15.0182 5.9505C14.6666 5.5859 14.6537 4.9609 15.0182 4.5964L16.4765 3.138C16.8542 2.7604 17.4661 2.7604 17.8437 3.138C18.2213 3.5156 18.2213 4.1406 17.8437 4.5052L16.4114 5.9505ZM17.9349 11.6406C17.4141 11.6406 16.9583 11.2109 16.9583 10.6641C16.9583 10.1302 17.4141 9.6875 17.9349 9.6875H19.9661C20.4999 9.6875 20.9297 10.1302 20.9297 10.6641C20.9297 11.2109 20.4999 11.6406 19.9661 11.6406H17.9349ZM15.0182 16.7708C14.6537 16.3932 14.6537 15.7683 15.0182 15.3907C15.3958 15.026 16.0078 15.026 16.3854 15.3907L17.8437 16.836C18.2213 17.2005 18.2213 17.8255 17.8437 18.2031C17.4661 18.5807 16.8542 18.5937 16.4765 18.2161L15.0182 16.7708ZM5.4427 26.1979C8.4375 26.1979 10.8724 23.776 10.8724 20.7683C10.8724 19.2057 10.2213 17.8125 9.0104 16.6927C8.802 16.4973 8.763 16.3932 8.763 16.1197L8.776 7.1094C8.776 4.9479 7.4218 3.4766 5.4427 3.4766C3.4505 3.4766 2.0963 4.9479 2.0963 7.1094V16.1197C2.0963 16.3932 2.0573 16.4973 1.862 16.6927C0.651 17.8125 0 19.2057 0 20.7683C0 23.776 2.4349 26.1979 5.4427 26.1979ZM5.4427 24.5183C3.3724 24.5183 1.7057 22.8255 1.7057 20.7683C1.7057 19.5052 2.3177 18.3593 3.3854 17.6563C3.6849 17.4609 3.802 17.2917 3.802 16.888V7.1875C3.802 5.9766 4.4661 5.1823 5.4427 5.1823C6.4062 5.1823 7.0573 5.9766 7.0573 7.1875V16.888C7.0573 17.2917 7.1875 17.4609 7.487 17.6563C8.5416 18.3593 9.1666 19.5052 9.1666 20.7683C9.1666 22.8255 7.5 24.5183 5.4427 24.5183ZM7.8125 20.7552C7.8125 22.0703 6.7578 23.138 5.4427 23.138C4.1406 23.138 3.0859 22.0703 3.0859 20.7552C3.0859 19.8438 3.5937 19.0886 4.3489 18.685C4.6744 18.5156 4.7786 18.3855 4.7786 17.9167V7.9948C4.7786 7.5 5.0781 7.2006 5.4427 7.2006C5.8203 7.2006 6.1198 7.5 6.1198 7.9948V17.9167C6.1198 18.3855 6.2239 18.5156 6.5495 18.685C7.2916 19.0886 7.8125 19.8438 7.8125 20.7552Z" fill="white"/>
</svg>
