<svg width="48" height="48" viewBox="0 0 48 48" fill="none" xmlns="http://www.w3.org/2000/svg">
<path d="M29.7959 1.85028C30.047 1.80651 30.3053 1.84564 30.5322 1.96161C30.7592 2.07768 30.9431 2.26458 31.0547 2.49384C31.1659 2.72263 31.1998 2.98141 31.1514 3.23114L28.4023 16.9802L28.3486 17.2507L28.6074 17.3483L39.4092 21.4001H39.4102C39.5915 21.4675 39.7537 21.5793 39.8818 21.7243C39.9778 21.833 40.0524 21.9582 40.1025 22.0934L40.1445 22.2311C40.1877 22.4182 40.1843 22.613 40.1348 22.7985C40.0975 22.938 40.0345 23.0691 39.9502 23.1852L39.8594 23.2966L18.8594 45.7956C18.6851 45.9816 18.4552 46.1063 18.2041 46.1501C17.9531 46.1938 17.6947 46.1547 17.4678 46.0388C17.2408 45.9227 17.0578 45.7357 16.9463 45.5065C16.835 45.2777 16.8003 45.019 16.8486 44.7692L19.5898 31.0349L19.6445 30.7643L19.3857 30.6667L8.58008 26.6149H8.5791C8.39748 26.5469 8.23528 26.4346 8.10742 26.2888C7.97971 26.143 7.89033 25.9678 7.84668 25.779C7.80307 25.59 7.80648 25.3929 7.85742 25.2057C7.90846 25.0186 8.00517 24.8465 8.13867 24.7057L8.14062 24.7038L29.1406 2.2038C29.3149 2.01794 29.5449 1.89406 29.7959 1.85028ZM27.2539 7.66278L11.3877 24.6618L11.0557 25.0163L11.5107 25.1872L21.417 28.9079V28.9089C21.6771 29.0077 21.8938 29.1956 22.0283 29.4391C22.1459 29.6523 22.1946 29.8962 22.168 30.1364L22.1514 30.2399L20.1885 40.0612L19.9639 41.1843L20.7441 40.3464L36.6055 23.3386L36.9365 22.9831L36.4814 22.8122L26.582 19.1003H26.583C26.3229 19.0014 26.1062 18.8137 25.9717 18.57C25.8372 18.3264 25.7937 18.043 25.8486 17.7702V17.7692L27.8096 7.94794L28.0342 6.82684L27.2539 7.66278Z" fill="#3B5941" stroke="white" stroke-width="0.65"/>
</svg>
