<svg width="24" height="24" viewBox="0 0 24 24" fill="none" xmlns="http://www.w3.org/2000/svg">
<g clip-path="url(#clip0_257_1837)">
<path d="M23.6192 12.0003C23.6192 18.061 19.2436 23.0713 13.5599 23.8846C13.0282 23.9606 12.4845 24 11.9327 24C11.2954 24 10.6702 23.9475 10.0605 23.8466C4.49649 22.9269 0.246094 17.9725 0.246094 11.9997C0.246094 5.37242 5.47833 0 11.9327 0C18.387 0 23.6192 5.37302 23.6192 12.0003Z" fill="white"/>
<path d="M19.3595 9.49136C19.2673 8.57096 19.0674 7.55452 18.3326 7.0197C17.7626 6.60511 17.0142 6.58991 16.3157 6.5906C14.8386 6.59198 13.3614 6.59337 11.8843 6.59475C10.4637 6.59613 9.04308 6.59751 7.62247 6.59889C7.02893 6.59889 6.4522 6.55191 5.90105 6.81517C5.42729 7.04182 5.05715 7.4723 4.83508 7.95116C4.52552 8.61796 4.46025 9.37251 4.42324 10.1098C4.3546 11.4517 4.362 12.7978 4.44478 14.1383C4.50467 15.1174 4.65742 16.1988 5.39431 16.8228C6.04775 17.3755 6.9697 17.4025 7.81628 17.4032C10.5054 17.4053 13.1945 17.4073 15.8837 17.4101C16.2282 17.4101 16.5883 17.4039 16.9395 17.3645C17.6313 17.2878 18.2902 17.0846 18.7343 16.5588C19.1825 16.0288 19.2976 15.2902 19.3662 14.5916C19.5318 12.8973 19.5297 11.185 19.3595 9.49136ZM10.3291 14.3767V9.62403L14.3379 12.0004L10.3291 14.3767Z" fill="#111111"/>
</g>
<defs>
<clipPath id="clip0_257_1837">
<rect width="24" height="24" fill="white"/>
</clipPath>
</defs>
</svg>
