<svg width="160" height="31" viewBox="0 0 160 31" fill="none" xmlns="http://www.w3.org/2000/svg">
<g clip-path="url(#clip0_257_1789)">
<path d="M160 23.5716H155.498C155.412 22.9906 155.348 22.5238 155.273 21.9428C154.941 22.1088 154.683 22.1918 154.49 22.3578C151.457 24.8374 147.159 24.3394 144.854 21.2062C142.882 18.5398 142.86 13.4873 144.801 10.8313C147.159 7.61513 151.832 7.13789 154.565 9.65897C154.716 9.80422 154.919 9.89759 155.326 10.1466V3.33032H160.011V23.582L160 23.5716ZM155.359 15.9565C155.348 13.5703 153.386 11.7651 151.2 12.1282C149.549 12.3979 148.306 13.9023 148.22 15.7075C148.123 17.7306 149.195 19.3698 150.9 19.7952C153.247 20.3762 155.38 18.5398 155.359 15.9565Z" fill="#3B5941"/>
<path d="M75.632 8.44514V23.6131H71.0336C70.9693 23.0633 70.9157 22.5549 70.8406 21.8805C70.5084 22.088 70.2833 22.1918 70.101 22.3578C67.0033 25.1071 61.7404 24.1215 59.961 20.4384C58.7498 17.9381 58.589 15.3548 59.4572 12.7092C60.8507 8.39327 66.4888 6.34942 70.2082 9.71087C70.369 9.85612 70.562 9.97024 70.9264 10.2504C70.9693 9.56562 71.0121 9.06763 71.055 8.44514H75.6427H75.632ZM70.9157 15.9669C70.9157 13.6222 69.0828 11.8481 66.9283 12.1075C65.2561 12.3046 63.927 13.7674 63.7877 15.5623C63.6376 17.5439 64.688 19.2972 66.3066 19.7537C68.7505 20.4384 70.9157 18.6644 70.9157 15.9669Z" fill="#3B5941"/>
<path d="M108.078 23.6131V4.41968C108.485 4.38856 108.935 4.31593 109.375 4.31593C111.69 4.30556 114.016 4.29519 116.331 4.31593C116.932 4.31593 117.543 4.36781 118.121 4.49231C121.305 5.13555 123.116 7.16901 123.245 10.1777C123.374 13.2798 121.712 15.5208 118.572 16.3507C117.693 16.5894 116.749 16.6309 115.828 16.6827C114.906 16.7346 113.984 16.6931 112.901 16.6931C112.526 19.0067 112.934 21.2995 112.644 23.6028H108.089L108.078 23.6131ZM112.858 13.01C114.027 13.01 115.088 13.093 116.138 12.9893C117.639 12.8337 118.422 11.8688 118.4 10.4163C118.379 9.07798 117.553 8.18575 116.074 8.07162C115.045 7.98863 113.995 8.05088 112.869 8.05088V13.01H112.858Z" fill="#3B5941"/>
<path d="M100.886 8.27903C101.968 8.27903 103.029 8.26865 104.091 8.27903C104.68 8.27903 105.27 8.34127 106.02 8.38277C102.676 15.9772 99.385 23.4367 96.0514 30.9999H91.0243C91.5388 29.8172 92.0318 28.6448 92.5464 27.4828C93.0287 26.4142 93.5325 25.356 94.047 24.2978C94.4114 23.5612 94.39 22.8868 94.047 22.1087C92.2891 18.1455 90.5848 14.1616 88.8698 10.188C88.6447 9.65888 88.441 9.11939 88.1624 8.42427H93.436C94.5829 11.4226 95.762 14.5039 96.9411 17.5853L97.327 17.6164C98.4846 14.5869 99.6422 11.5575 100.896 8.27903H100.886Z" fill="#3B5941"/>
<path d="M133.439 8.08193C138.305 8.09231 141.542 11.3293 141.531 16.1536C141.531 20.6562 138.016 23.9139 133.192 23.9036C128.272 23.9036 124.981 20.7081 124.992 15.9461C124.992 11.1944 128.369 8.06118 133.449 8.07156L133.439 8.08193ZM136.686 15.7904C136.611 15.4273 136.59 14.7737 136.343 14.2135C135.829 13.0411 134.971 12.18 133.557 12.0866C132.131 11.9932 130.93 12.512 130.373 13.7881C130.009 14.6181 129.88 15.6037 129.891 16.527C129.923 18.4153 131.37 19.8574 133.139 19.9404C134.779 20.0234 136.301 18.6643 136.601 16.859C136.644 16.5893 136.644 16.3196 136.686 15.7904Z" fill="#3B5941"/>
<path d="M51.7182 18.7682H56.6703C56.0272 21.0403 54.5802 22.4512 52.5436 23.302C50.2605 24.2565 47.9131 24.1423 45.6299 23.2501C43.6791 22.4824 42.3607 21.0506 41.6961 19.1209C41.0852 17.3468 40.9887 15.4897 41.4496 13.6741C42.4679 9.63833 46.4553 7.36624 50.925 8.20661C55.2019 9.01584 57.5386 12.2839 56.9919 17.0148H46.0587C46.0158 18.5814 46.6161 19.4944 47.8273 19.982C49.2958 20.5734 50.2498 20.2829 51.729 18.7682H51.7182ZM52.1363 14.5249C51.9755 12.6367 50.8715 11.7237 48.9849 11.7859C47.2485 11.8378 46.123 12.896 46.123 14.5249H52.147H52.1363Z" fill="#3B5941"/>
<path d="M79.909 12.3045C79.2444 12.1904 78.7942 12.1178 78.2368 12.0244V8.48659C78.6549 8.41397 79.1372 8.33097 79.7803 8.21684C79.9947 6.23525 80.252 4.18103 82.2457 2.97755C83.7249 2.08532 85.3756 2.00232 87.1442 1.99194V5.74763C85.0862 6.2145 84.9039 6.3805 84.711 8.14422C85.4935 8.24797 86.2867 8.35172 87.187 8.47621V12.0037C86.4367 12.0659 85.6864 12.1385 84.7431 12.2215V23.5923H79.8982V12.3045H79.909Z" fill="#3B5941"/>
<path d="M28.5227 4.34717H33.1318V20.1065H39.5095V23.6029H28.5227V4.34717Z" fill="#3B5941"/>
<path d="M21.4699 19.2037C20.398 18.8302 19.9371 19.515 19.4333 20.0337C17.043 22.4407 15.9282 22.4614 13.4843 20.1478C13.2378 19.9092 12.9698 19.681 12.6911 19.4735C12.5625 19.3697 12.391 19.3179 12.0266 19.1311C11.5657 19.4942 11.0083 19.8677 10.5366 20.3346C8.01772 22.8764 4.63057 22.1813 3.53725 18.851C3.26928 18.0521 3.12994 17.191 3.09778 16.3507C3.01203 14.2549 3.07634 12.1488 2.97987 10.0531C2.72262 4.49222 6.52781 1.2449 11.0083 0.373415C13.9024 -0.186826 16.8072 -0.103827 19.712 0.549787C20.4944 3.93198 20.4944 7.16893 19.2189 10.3333C17.5575 14.4313 13.956 16.7864 9.8828 16.4959C6.62427 16.2677 5.29514 13.7881 7.01015 11.0802C8.67157 8.47616 10.8475 6.37007 13.6665 4.92797C14.1275 4.69972 14.6848 4.65822 15.1993 4.53372C15.2958 4.68934 15.403 4.84497 15.4995 5.00059C15.0493 5.42596 14.642 5.89283 14.1596 6.28707C12.6054 7.56317 10.9868 8.7874 9.47548 10.1154C8.88595 10.6341 8.43576 11.35 8.04988 12.0451C7.0959 13.7673 7.73903 14.9189 9.78633 15.0849C12.5625 15.3028 14.8456 14.3068 16.5392 12.1592C18.1792 10.0946 18.758 7.68767 18.7366 5.12509C18.7258 4.05648 18.7366 2.99825 18.7366 2.06451C14.9314 0.40454 8.30713 1.83627 6.0133 4.75159C5.33802 5.62308 4.7056 6.77469 4.66273 7.81217C4.5341 11.1425 4.68417 14.4936 4.76992 17.8239C4.78064 18.2596 4.97358 18.7161 5.16651 19.1207C5.86324 20.5836 7.52466 20.9571 8.81092 19.9611C9.12176 19.7121 9.37901 19.3905 9.66842 19.1104C11.2119 17.5438 13.0127 17.523 14.5669 19.0585C15.3387 19.8262 16.0033 20.7807 16.9572 20.4798C18.0184 19.5461 18.7151 18.768 19.5726 18.1974C21.3305 17.025 22.9705 17.8135 23.1849 19.8781C23.3992 21.9531 22.4989 23.7064 21.1804 25.1693C17.7075 28.9976 13.1413 29.6616 8.31785 28.6241C3.71947 27.6177 1.24342 24.4119 0.0429126 20.1893C-0.0535569 19.8366 0.0321938 19.4424 0.0321938 19.0377C1.09336 18.7057 1.10408 19.4631 1.29702 20.013C2.0259 22.1709 3.37647 23.9139 5.1022 25.4286C8.65013 28.5411 17.1502 28.9768 20.9875 22.9387C21.8557 21.5796 21.9522 20.6977 21.4591 19.1934L21.4699 19.2037Z" fill="#3B5941"/>
</g>
<defs>
<clipPath id="clip0_257_1789">
<rect width="160" height="31" fill="white"/>
</clipPath>
</defs>
</svg>
